<svg xmlns="http://www.w3.org/2000/svg" viewBox="0 0 24 24" role="img"><title>Zhipu AI</title><g fill="#3D5AFE"><line x1="9.8" y1="10.1" x2="14.2" y2="13.9" stroke="#3D5AFE" stroke-width="1.1" stroke-linecap="round"/><circle cx="12" cy="12" r="1.9"/><circle cx="9.8" cy="10.1" r="1.3"/><circle cx="14.2" cy="13.9" r="1.3"/><circle cx="17" cy="12" r="1.05"/><circle cx="15.5" cy="8.5" r="1.05"/><circle cx="12" cy="7" r="1.05"/><circle cx="8.5" cy="8.5" r="1.05"/><circle cx="7" cy="12" r="1.05"/><circle cx="8.5" cy="15.5" r="1.05"/><circle cx="12" cy="17" r="1.05"/><circle cx="15.5" cy="15.5" r="1.05"/><circle cx="20.2" cy="12" r="0.72"/><circle cx="17.8" cy="6.2" r="0.72"/><circle cx="12" cy="3.8" r="0.72"/><circle cx="6.2" cy="6.2" r="0.72"/><circle cx="3.8" cy="12" r="0.72"/><circle cx="6.2" cy="17.8" r="0.72"/><circle cx="12" cy="20.2" r="0.72"/><circle cx="17.8" cy="17.8" r="0.72"/><circle cx="21.5" cy="8.1" r="0.42"/><circle cx="15.9" cy="2.5" r="0.42"/><circle cx="8.1" cy="2.5" r="0.42"/><circle cx="2.5" cy="8.1" r="0.42"/><circle cx="2.5" cy="15.9" r="0.42"/><circle cx="8.1" cy="21.5" r="0.42"/><circle cx="15.9" cy="21.5" r="0.42"/><circle cx="21.5" cy="15.9" r="0.42"/></g></svg>
